<svg xmlns="http://www.w3.org/2000/svg" xmlns:xlink="http://www.w3.org/1999/xlink" width="500" zoomAndPan="magnify" viewBox="0 0 375 374.999991" height="500" preserveAspectRatio="xMidYMid meet" version="1.2"><defs><clipPath id="2618eabf82"><path d="M 55.441406 23.542969 L 319.441406 23.542969 L 319.441406 337.792969 L 55.441406 337.792969 Z M 55.441406 23.542969 "/></clipPath></defs><g id="9ef0ea055f"><rect x="0" width="375" y="0" height="374.999991" style="fill:#ffffff;fill-opacity:1;stroke:none;"/><rect x="0" width="375" y="0" height="374.999991" style="fill:#ffffff;fill-opacity:1;stroke:none;"/><g clip-rule="nonzero" clip-path="url(#2618eabf82)"><path style=" stroke:none;fill-rule:nonzero;fill:#004aad;fill-opacity:1;" d="M 207.957031 212.472656 L 207.957031 223.710938 L 237.03125 223.710938 L 237.03125 293.457031 C 221.15625 315.753906 198.324219 329.667969 172.992188 329.667969 C 124.832031 329.667969 85.585938 279.007812 85.585938 216.574219 C 85.585938 165.378906 111.808594 122.210938 147.84375 108.300781 C 147.84375 152.535156 147.84375 196.773438 147.84375 241.011719 L 176.917969 241.011719 C 176.917969 202.125 176.917969 163.417969 176.917969 124.53125 L 176.917969 103.660156 C 181.554688 103.839844 186.015625 104.730469 190.472656 105.800781 C 221.511719 114.007812 242.917969 141.65625 252.90625 171.089844 C 290.367188 167.519531 319.441406 135.949219 319.441406 97.597656 C 319.441406 53.359375 284.65625 23.746094 242.027344 23.746094 L 147.84375 23.746094 L 147.84375 98.667969 C 95.042969 110.617188 55.441406 158.78125 55.441406 216.574219 C 55.441406 283.109375 108.0625 337.160156 172.992188 337.160156 C 197.964844 337.160156 220.976562 329.132812 240.0625 315.574219 L 265.929688 315.574219 L 265.929688 212.292969 C 246.484375 212.472656 227.21875 212.472656 207.957031 212.472656 Z M 242.382812 34.984375 C 271.28125 34.984375 294.648438 62.992188 294.648438 97.597656 C 294.648438 119.535156 285.191406 138.800781 270.921875 150.039062 C 252.90625 122.035156 223.832031 102.234375 189.9375 97.238281 C 185.65625 96.527344 181.199219 96.167969 176.738281 95.992188 L 176.738281 34.984375 C 176.917969 34.984375 242.382812 34.984375 242.382812 34.984375 Z M 242.382812 34.984375 "/></g><g style="fill:#ffffff;fill-opacity:1;"><g transform="translate(222.450561, 371.799967)"><path style="stroke:none" d="M 4.890625 -14.5 L 0 -14.5 L 0 -25.3125 C 0 -25.5 0.117188 -25.59375 0.359375 -25.59375 L 4.546875 -25.59375 C 4.773438 -25.59375 4.890625 -25.5 4.890625 -25.3125 Z M 19.140625 -25.59375 C 19.367188 -25.59375 19.484375 -25.5 19.484375 -25.3125 L 19.484375 -0.28125 C 19.484375 -0.09375 19.367188 0 19.140625 0 L 14.9375 0 C 14.707031 0 14.59375 -0.09375 14.59375 -0.28125 L 14.59375 -4.796875 L 4.890625 -4.796875 L 4.890625 -0.28125 C 4.890625 -0.09375 4.773438 0 4.546875 0 L 0.359375 0 C 0.117188 0 0 -0.09375 0 -0.28125 L 0 -9.59375 L 4.890625 -9.59375 L 4.890625 -9.5625 L 14.59375 -9.5625 L 14.59375 -25.3125 C 14.59375 -25.5 14.707031 -25.59375 14.9375 -25.59375 Z M 19.140625 -25.59375 "/></g></g><g style="fill:#ffffff;fill-opacity:1;"><g transform="translate(242.925527, 371.799967)"><path style="stroke:none" d="M 12.15625 -4.765625 L 12.15625 0 L 0.359375 0 C 0.117188 0 0 -0.09375 0 -0.28125 L 0 -25.3125 C 0 -25.5 0.117188 -25.59375 0.359375 -25.59375 L 12.15625 -25.59375 L 12.15625 -20.953125 L 4.890625 -20.953125 L 4.890625 -15.171875 L 14.9375 -15.171875 C 15.175781 -15.171875 15.296875 -15.070312 15.296875 -14.875 L 15.296875 -10.8125 C 15.296875 -10.625 15.175781 -10.53125 14.9375 -10.53125 L 4.890625 -10.53125 L 4.890625 -4.765625 Z M 12.15625 -4.765625 "/></g></g><g style="fill:#ffffff;fill-opacity:1;"><g transform="translate(258.985581, 371.799967)"><path style="stroke:none" d="M 20.09375 -0.390625 C 20.132812 -0.296875 20.125 -0.207031 20.0625 -0.125 C 20 -0.0390625 19.914062 0 19.8125 0 L 15.390625 0 C 15.242188 0 15.148438 -0.0625 15.109375 -0.1875 L 10.046875 -14.46875 L 5.0625 -0.1875 C 5.039062 -0.0625 4.929688 0 4.734375 0 L 0.359375 0 C 0.203125 0 0.0976562 -0.0390625 0.046875 -0.125 C -0.00390625 -0.207031 -0.0078125 -0.296875 0.03125 -0.390625 L 9.734375 -25.40625 C 9.773438 -25.53125 9.878906 -25.59375 10.046875 -25.59375 C 10.210938 -25.59375 10.320312 -25.53125 10.375 -25.40625 Z M 20.09375 -0.390625 "/></g></g><g style="fill:#ffffff;fill-opacity:1;"><g transform="translate(280.100387, 371.799967)"><path style="stroke:none" d="M 4.546875 -25.59375 C 5.785156 -25.59375 7.097656 -25.507812 8.484375 -25.34375 C 9.867188 -25.175781 11.210938 -24.84375 12.515625 -24.34375 C 13.816406 -23.851562 14.992188 -23.140625 16.046875 -22.203125 C 17.097656 -21.265625 17.9375 -20.03125 18.5625 -18.5 C 19.195312 -16.976562 19.515625 -15.078125 19.515625 -12.796875 C 19.515625 -10.597656 19.203125 -8.742188 18.578125 -7.234375 C 17.960938 -5.734375 17.132812 -4.507812 16.09375 -3.5625 C 15.050781 -2.613281 13.875 -1.878906 12.5625 -1.359375 C 11.25 -0.835938 9.90625 -0.476562 8.53125 -0.28125 C 7.15625 -0.09375 5.828125 0 4.546875 0 L 0.359375 0 C 0.117188 0 0 -0.09375 0 -0.28125 L 0 -10.34375 L 4.890625 -10.34375 L 4.890625 -4.703125 C 5.515625 -4.679688 6.238281 -4.695312 7.0625 -4.75 C 7.894531 -4.800781 8.75 -4.957031 9.625 -5.21875 C 10.5 -5.488281 11.316406 -5.910156 12.078125 -6.484375 C 12.835938 -7.066406 13.445312 -7.867188 13.90625 -8.890625 C 14.363281 -9.921875 14.59375 -11.222656 14.59375 -12.796875 C 14.59375 -14.828125 14.171875 -16.453125 13.328125 -17.671875 C 12.484375 -18.898438 11.332031 -19.773438 9.875 -20.296875 C 8.414062 -20.828125 6.753906 -21.035156 4.890625 -20.921875 L 4.890625 -15.265625 L 0 -15.265625 L 0 -25.3125 C 0 -25.5 0.117188 -25.59375 0.359375 -25.59375 Z M 4.546875 -25.59375 "/></g></g><g style="fill:#ffffff;fill-opacity:1;"><g transform="translate(300.607351, 371.799967)"><path style="stroke:none" d="M 10.4375 -4.390625 C 10.664062 -4.390625 10.78125 -4.289062 10.78125 -4.09375 L 10.78125 -0.28125 C 10.78125 -0.09375 10.664062 0 10.4375 0 L 0.359375 0 C 0.117188 0 0 -0.09375 0 -0.28125 L 0 -4.09375 C 0 -4.289062 0.117188 -4.390625 0.359375 -4.390625 L 2.96875 -4.390625 L 2.96875 -25.59375 L 7.875 -25.59375 L 7.875 -4.390625 Z M 10.4375 -4.390625 "/></g></g><g style="fill:#ffffff;fill-opacity:1;"><g transform="translate(311.932572, 371.799967)"><path style="stroke:none" d="M 21.1875 -25.59375 C 21.414062 -25.59375 21.53125 -25.5 21.53125 -25.3125 L 21.53125 -0.28125 C 21.53125 -0.09375 21.414062 0 21.1875 0 L 16.953125 0 C 16.929688 0 16.882812 -0.0078125 16.8125 -0.03125 C 16.738281 -0.0507812 16.691406 -0.0703125 16.671875 -0.09375 L 4.890625 -16.953125 L 4.890625 -6.140625 L 0 -6.140625 L 0 -25.3125 C 0 -25.5 0.101562 -25.59375 0.3125 -25.59375 L 4.578125 -25.59375 C 4.617188 -25.59375 4.671875 -25.585938 4.734375 -25.578125 C 4.796875 -25.566406 4.835938 -25.539062 4.859375 -25.5 L 16.671875 -8.640625 L 16.671875 -25.3125 C 16.671875 -25.5 16.800781 -25.59375 17.0625 -25.59375 Z M 21.1875 -25.59375 "/></g></g><g style="fill:#ffffff;fill-opacity:1;"><g transform="translate(334.551017, 371.799967)"><path style="stroke:none" d="M 19.515625 -20.890625 L 14.625 -20.890625 C 14.007812 -20.910156 13.285156 -20.894531 12.453125 -20.84375 C 11.617188 -20.789062 10.765625 -20.628906 9.890625 -20.359375 C 9.015625 -20.097656 8.195312 -19.675781 7.4375 -19.09375 C 6.675781 -18.519531 6.066406 -17.722656 5.609375 -16.703125 C 5.148438 -15.679688 4.921875 -14.378906 4.921875 -12.796875 C 4.921875 -10.773438 5.34375 -9.148438 6.1875 -7.921875 C 7.03125 -6.691406 8.179688 -5.820312 9.640625 -5.3125 C 11.109375 -4.800781 12.769531 -4.585938 14.625 -4.671875 L 14.625 -11.078125 L 9.703125 -11.078125 L 9.703125 -15.96875 L 19.515625 -15.96875 L 19.515625 -0.28125 C 19.515625 -0.09375 19.398438 0 19.171875 0 L 15.015625 0 C 13.753906 0 12.429688 -0.0820312 11.046875 -0.25 C 9.671875 -0.425781 8.328125 -0.757812 7.015625 -1.25 C 5.710938 -1.738281 4.53125 -2.453125 3.46875 -3.390625 C 2.414062 -4.328125 1.570312 -5.5625 0.9375 -7.09375 C 0.3125 -8.632812 0 -10.535156 0 -12.796875 C 0 -14.992188 0.304688 -16.84375 0.921875 -18.34375 C 1.546875 -19.851562 2.382812 -21.082031 3.4375 -22.03125 C 4.5 -22.976562 5.675781 -23.710938 6.96875 -24.234375 C 8.269531 -24.765625 9.613281 -25.125 11 -25.3125 C 12.394531 -25.5 13.734375 -25.59375 15.015625 -25.59375 L 19.171875 -25.59375 C 19.398438 -25.59375 19.515625 -25.5 19.515625 -25.3125 Z M 19.515625 -20.890625 "/></g></g></g></svg>